<svg width="350" height="100" viewBox="0 0 350 100" fill="none" xmlns="http://www.w3.org/2000/svg">
<path d="M22.9997 83.5H77.4997" stroke="#022D55" stroke-width="2.5" stroke-linecap="round"/>
<path d="M25 83.5V18C25 16.8954 25.8954 16 27 16H73.5C74.6046 16 75.5 16.8954 75.5 18V83.5" stroke="#022D55" stroke-width="2.5" stroke-linecap="square" stroke-linejoin="round"/>
<path d="M34 35.5V56.5C34 58.1569 35.3431 59.5 37 59.5H50M45 35.5H63C64.6569 35.5 66 36.8431 66 38.5V56.5C66 58.1569 64.6569 59.5 63 59.5H50M50 59.5V69.5M37 69.5H63" stroke="#0D0A0B" stroke-linecap="round"/>
<path d="M36.1968 42.2C35.855 42.2 35.6841 42.0169 35.6841 41.6507V32.2464C35.6841 31.8802 35.855 31.6971 36.1968 31.6971H37.3101C37.6519 31.6971 37.8228 31.8802 37.8228 32.2464V35.1614C37.8228 35.4544 37.8105 35.7474 37.7861 36.0403H37.8374L41.397 32.1292C41.6606 31.8411 41.8853 31.6971 42.0708 31.6971H43.543C44.1143 31.6971 44.207 31.907 43.8213 32.327L40.4888 35.9744L44.0557 41.5701C44.3242 41.99 44.2314 42.2 43.7773 42.2H42.4077C42.1538 42.2 41.9341 42.056 41.7485 41.7679L39.0532 37.5418L37.8228 38.9261V41.6507C37.8228 42.0169 37.6519 42.2 37.3101 42.2H36.1968Z" fill="#0D0A0B"/>
<path d="M41.1992 48.2852C41.043 48.2031 40.9648 48.0957 40.9648 47.9629V47.4238C40.9648 47.291 41.043 47.1836 41.1992 47.1016L46.7129 44.166C46.9199 44.0566 47.0703 44.0879 47.1641 44.2598L47.3809 44.6758C47.4707 44.8477 47.4141 44.9883 47.2109 45.0977L42.3242 47.6875V47.6992L47.2109 50.2891C47.4141 50.3984 47.4707 50.5391 47.3809 50.7109L47.1641 51.127C47.0703 51.2988 46.9199 51.3301 46.7129 51.2207L41.1992 48.2852ZM52.7539 50.7109C52.6641 50.5391 52.7207 50.3984 52.9238 50.2891L57.8105 47.6992V47.6875L52.9238 45.0977C52.7207 44.9883 52.6641 44.8477 52.7539 44.6758L52.9707 44.2598C53.0645 44.0879 53.2148 44.0566 53.4219 44.166L58.9355 47.1016C59.0918 47.1836 59.1699 47.291 59.1699 47.4238V47.9629C59.1699 48.0957 59.0918 48.2031 58.9355 48.2852L53.4219 51.2207C53.2148 51.3301 53.0645 51.2988 52.9707 51.127L52.7539 50.7109Z" fill="#0D0A0B"/>
<path d="M41.1992 48.2852L41.4342 47.8438L41.4316 47.8425L41.1992 48.2852ZM41.1992 47.1016L41.4316 47.5443L41.4342 47.5429L41.1992 47.1016ZM46.7129 44.166L46.4793 43.7239L46.4779 43.7247L46.7129 44.166ZM47.1641 44.2598L47.6075 44.0287L47.603 44.0203L47.1641 44.2598ZM47.3809 44.6758L46.9375 44.9069L46.9377 44.9074L47.3809 44.6758ZM47.2109 45.0977L47.4451 45.5395L47.448 45.5379L47.2109 45.0977ZM42.3242 47.6875L42.0901 47.2457L41.8242 47.3866V47.6875H42.3242ZM42.3242 47.6992H41.8242V48.0001L42.0901 48.141L42.3242 47.6992ZM47.2109 50.2891L47.448 49.8488L47.4451 49.8473L47.2109 50.2891ZM47.3809 50.7109L46.9377 50.4793L46.9375 50.4799L47.3809 50.7109ZM47.1641 51.127L47.6031 51.3664L47.6075 51.358L47.1641 51.127ZM46.7129 51.2207L46.4779 51.6621L46.4793 51.6628L46.7129 51.2207ZM41.4316 47.8425C41.4001 47.8259 41.4094 47.8237 41.4278 47.849C41.4376 47.8624 41.4477 47.8807 41.455 47.9031C41.4623 47.9255 41.4648 47.9463 41.4648 47.9629H40.4648C40.4648 48.3431 40.7088 48.5924 40.9668 48.7279L41.4316 47.8425ZM41.4648 47.9629V47.4238H40.4648V47.9629H41.4648ZM41.4648 47.4238C41.4648 47.4404 41.4623 47.4612 41.455 47.4836C41.4477 47.506 41.4376 47.5243 41.4278 47.5377C41.4094 47.563 41.4001 47.5608 41.4316 47.5443L40.9668 46.6589C40.7088 46.7943 40.4648 47.0436 40.4648 47.4238H41.4648ZM41.4342 47.5429L46.9479 44.6074L46.4779 43.7247L40.9642 46.6602L41.4342 47.5429ZM46.9465 44.6081C46.9987 44.5805 46.9643 44.6146 46.8792 44.597C46.8339 44.5875 46.7936 44.5668 46.7633 44.5416C46.7494 44.53 46.7398 44.5193 46.7338 44.5117C46.7278 44.5042 46.7252 44.4994 46.7251 44.4992L47.603 44.0203C47.5067 43.8437 47.3392 43.6712 47.0827 43.6179C46.8473 43.569 46.6341 43.6421 46.4793 43.7239L46.9465 44.6081ZM46.7207 44.4908L46.9375 44.9069L47.8243 44.4447L47.6075 44.0287L46.7207 44.4908ZM46.9377 44.9074C46.9377 44.9073 46.9274 44.8878 46.9236 44.8517C46.9194 44.8124 46.9244 44.767 46.942 44.7234C46.975 44.6413 47.024 44.6305 46.9739 44.6574L47.448 45.5379C47.601 45.4555 47.7799 45.3196 47.8696 45.097C47.9671 44.8548 47.9163 44.6208 47.824 44.4442L46.9377 44.9074ZM46.9768 44.6559L42.0901 47.2457L42.5584 48.1293L47.4451 45.5394L46.9768 44.6559ZM41.8242 47.6875V47.6992H42.8242V47.6875H41.8242ZM42.0901 48.141L46.9768 50.7309L47.4451 49.8473L42.5584 47.2574L42.0901 48.141ZM46.9739 50.7293C47.024 50.7563 46.975 50.7454 46.942 50.6634C46.9244 50.6198 46.9194 50.5743 46.9236 50.5351C46.9274 50.4989 46.9377 50.4794 46.9377 50.4793L47.824 50.9426C47.9163 50.7659 47.9671 50.5319 47.8696 50.2898C47.7799 50.0671 47.601 49.9312 47.448 49.8488L46.9739 50.7293ZM46.9375 50.4799L46.7207 50.8959L47.6075 51.358L47.8243 50.942L46.9375 50.4799ZM46.7251 50.8875C46.7252 50.8873 46.7278 50.8826 46.7338 50.875C46.7398 50.8674 46.7494 50.8567 46.7633 50.8451C46.7936 50.82 46.8339 50.7992 46.8792 50.7898C46.9643 50.7721 46.9987 50.8062 46.9465 50.7786L46.4793 51.6628C46.6341 51.7446 46.8473 51.8178 47.0827 51.7688C47.3392 51.7155 47.5067 51.543 47.603 51.3664L46.7251 50.8875ZM46.9479 50.7794L41.4342 47.8438L40.9642 48.7265L46.4779 51.662L46.9479 50.7794ZM52.7539 50.7109L53.1973 50.4799L53.197 50.4793L52.7539 50.7109ZM52.9238 50.2891L52.6897 49.8473L52.6868 49.8488L52.9238 50.2891ZM57.8105 47.6992L58.0447 48.141L58.3105 48.0001V47.6992H57.8105ZM57.8105 47.6875H58.3105V47.3866L58.0447 47.2457L57.8105 47.6875ZM52.9238 45.0977L52.6868 45.5379L52.6897 45.5394L52.9238 45.0977ZM52.7539 44.6758L53.197 44.9074L53.1973 44.9069L52.7539 44.6758ZM52.9707 44.2598L52.5317 44.0203L52.5273 44.0287L52.9707 44.2598ZM53.4219 44.166L53.6569 43.7247L53.6554 43.7239L53.4219 44.166ZM58.9355 47.1016L58.7006 47.5429L58.7031 47.5443L58.9355 47.1016ZM58.9355 48.2852L58.7031 47.8424L58.7006 47.8438L58.9355 48.2852ZM53.4219 51.2207L53.6554 51.6628L53.6569 51.662L53.4219 51.2207ZM52.9707 51.127L52.5272 51.3581L52.5318 51.3664L52.9707 51.127ZM53.197 50.4793C53.1971 50.4794 53.2073 50.4989 53.2112 50.5351C53.2154 50.5743 53.2104 50.6198 53.1928 50.6634C53.1597 50.7454 53.1108 50.7563 53.1609 50.7293L52.6868 49.8488C52.5337 49.9312 52.3549 50.0671 52.2652 50.2898C52.1677 50.5319 52.2184 50.7659 52.3108 50.9426L53.197 50.4793ZM53.158 50.7309L58.0447 48.141L57.5764 47.2574L52.6897 49.8473L53.158 50.7309ZM58.3105 47.6992V47.6875H57.3105V47.6992H58.3105ZM58.0447 47.2457L53.158 44.6559L52.6897 45.5394L57.5764 48.1293L58.0447 47.2457ZM53.1609 44.6574C53.1108 44.6305 53.1597 44.6413 53.1928 44.7234C53.2104 44.767 53.2154 44.8124 53.2112 44.8517C53.2073 44.8878 53.1971 44.9073 53.197 44.9074L52.3108 44.4442C52.2184 44.6208 52.1677 44.8548 52.2652 45.097C52.3549 45.3196 52.5337 45.4555 52.6868 45.5379L53.1609 44.6574ZM53.1973 44.9069L53.4141 44.4908L52.5273 44.0287L52.3105 44.4447L53.1973 44.9069ZM53.4097 44.4992C53.4095 44.4994 53.4069 44.5042 53.401 44.5117C53.395 44.5193 53.3854 44.53 53.3714 44.5416C53.3412 44.5668 53.3009 44.5875 53.2555 44.597C53.1705 44.6146 53.1361 44.5805 53.1883 44.6081L53.6554 43.7239C53.5006 43.6421 53.2875 43.569 53.0521 43.6179C52.7955 43.6712 52.6281 43.8437 52.5318 44.0203L53.4097 44.4992ZM53.1869 44.6074L58.7006 47.5429L59.1705 46.6602L53.6569 43.7247L53.1869 44.6074ZM58.7031 47.5443C58.7346 47.5608 58.7254 47.563 58.707 47.5377C58.6972 47.5243 58.6871 47.506 58.6798 47.4836C58.6725 47.4612 58.6699 47.4404 58.6699 47.4238H59.6699C59.6699 47.0436 59.426 46.7943 59.168 46.6589L58.7031 47.5443ZM58.6699 47.4238V47.9629H59.6699V47.4238H58.6699ZM58.6699 47.9629C58.6699 47.9463 58.6725 47.9255 58.6798 47.9031C58.6871 47.8807 58.6972 47.8624 58.707 47.849C58.7254 47.8237 58.7346 47.8259 58.7031 47.8425L59.168 48.7279C59.426 48.5924 59.6699 48.3431 59.6699 47.9629H58.6699ZM58.7006 47.8438L53.1869 50.7794L53.6569 51.662L59.1705 48.7265L58.7006 47.8438ZM53.1883 50.7786C53.1361 50.8062 53.1705 50.7721 53.2555 50.7898C53.3009 50.7992 53.3412 50.82 53.3714 50.8451C53.3854 50.8567 53.395 50.8674 53.401 50.875C53.4069 50.8826 53.4095 50.8873 53.4097 50.8875L52.5318 51.3664C52.6281 51.543 52.7955 51.7155 53.0521 51.7688C53.2875 51.8178 53.5006 51.7446 53.6554 51.6628L53.1883 50.7786ZM53.4141 50.8959L53.1973 50.4799L52.3105 50.942L52.5273 51.358L53.4141 50.8959Z" fill="#0D0A0B"/>
<path d="M122.29 59L116.154 50.94V59H111.708V40.748H116.154V48.756L122.238 40.748H127.464L120.392 49.692L127.724 59H122.29ZM128.953 51.72C128.953 50.2293 129.23 48.9207 129.785 47.794C130.357 46.6673 131.128 45.8007 132.099 45.194C133.069 44.5873 134.153 44.284 135.349 44.284C136.371 44.284 137.264 44.492 138.027 44.908C138.807 45.324 139.405 45.87 139.821 46.546V44.492H144.267V59H139.821V56.946C139.387 57.622 138.781 58.168 138.001 58.584C137.238 59 136.345 59.208 135.323 59.208C134.144 59.208 133.069 58.9047 132.099 58.298C131.128 57.674 130.357 56.7987 129.785 55.672C129.23 54.528 128.953 53.2107 128.953 51.72ZM139.821 51.746C139.821 50.6367 139.509 49.7613 138.885 49.12C138.278 48.4787 137.533 48.158 136.649 48.158C135.765 48.158 135.011 48.4787 134.387 49.12C133.78 49.744 133.477 50.6107 133.477 51.72C133.477 52.8293 133.78 53.7133 134.387 54.372C135.011 55.0133 135.765 55.334 136.649 55.334C137.533 55.334 138.278 55.0133 138.885 54.372C139.509 53.7307 139.821 52.8553 139.821 51.746ZM165.995 44.336C167.798 44.336 169.228 44.882 170.285 45.974C171.36 47.066 171.897 48.5827 171.897 50.524V59H167.477V51.122C167.477 50.186 167.226 49.4667 166.723 48.964C166.238 48.444 165.562 48.184 164.695 48.184C163.828 48.184 163.144 48.444 162.641 48.964C162.156 49.4667 161.913 50.186 161.913 51.122V59H157.493V51.122C157.493 50.186 157.242 49.4667 156.739 48.964C156.254 48.444 155.578 48.184 154.711 48.184C153.844 48.184 153.16 48.444 152.657 48.964C152.172 49.4667 151.929 50.186 151.929 51.122V59H147.483V44.492H151.929V46.312C152.38 45.7053 152.969 45.2287 153.697 44.882C154.425 44.518 155.248 44.336 156.167 44.336C157.259 44.336 158.23 44.57 159.079 45.038C159.946 45.506 160.622 46.1733 161.107 47.04C161.61 46.2427 162.294 45.5927 163.161 45.09C164.028 44.5873 164.972 44.336 165.995 44.336ZM174.123 51.72C174.123 50.2293 174.4 48.9207 174.955 47.794C175.527 46.6673 176.298 45.8007 177.269 45.194C178.239 44.5873 179.323 44.284 180.519 44.284C181.541 44.284 182.434 44.492 183.197 44.908C183.977 45.324 184.575 45.87 184.991 46.546V44.492H189.437V59H184.991V56.946C184.557 57.622 183.951 58.168 183.171 58.584C182.408 59 181.515 59.208 180.493 59.208C179.314 59.208 178.239 58.9047 177.269 58.298C176.298 57.674 175.527 56.7987 174.955 55.672C174.4 54.528 174.123 53.2107 174.123 51.72ZM184.991 51.746C184.991 50.6367 184.679 49.7613 184.055 49.12C183.448 48.4787 182.703 48.158 181.819 48.158C180.935 48.158 180.181 48.4787 179.557 49.12C178.95 49.744 178.647 50.6107 178.647 51.72C178.647 52.8293 178.95 53.7133 179.557 54.372C180.181 55.0133 180.935 55.334 181.819 55.334C182.703 55.334 183.448 55.0133 184.055 54.372C184.679 53.7307 184.991 52.8553 184.991 51.746ZM197.099 46.91C197.619 46.1127 198.269 45.4887 199.049 45.038C199.829 44.57 200.696 44.336 201.649 44.336V49.042H200.427C199.318 49.042 198.486 49.2847 197.931 49.77C197.376 50.238 197.099 51.07 197.099 52.266V59H192.653V44.492H197.099V46.91ZM225.612 59H221.166L213.73 47.742V59H209.284V40.748H213.73L221.166 52.058V40.748H225.612V59ZM234.347 44.284C235.369 44.284 236.262 44.492 237.025 44.908C237.805 45.324 238.403 45.87 238.819 46.546V44.492H243.265V58.974C243.265 60.3087 242.996 61.5133 242.459 62.588C241.939 63.68 241.133 64.5467 240.041 65.188C238.966 65.8293 237.623 66.15 236.011 66.15C233.861 66.15 232.119 65.6387 230.785 64.616C229.45 63.6107 228.687 62.2413 228.497 60.508H232.891C233.029 61.0627 233.359 61.496 233.879 61.808C234.399 62.1373 235.04 62.302 235.803 62.302C236.721 62.302 237.449 62.0333 237.987 61.496C238.541 60.976 238.819 60.1353 238.819 58.974V56.92C238.385 57.596 237.787 58.1507 237.025 58.584C236.262 59 235.369 59.208 234.347 59.208C233.151 59.208 232.067 58.9047 231.097 58.298C230.126 57.674 229.355 56.7987 228.783 55.672C228.228 54.528 227.951 53.2107 227.951 51.72C227.951 50.2293 228.228 48.9207 228.783 47.794C229.355 46.6673 230.126 45.8007 231.097 45.194C232.067 44.5873 233.151 44.284 234.347 44.284ZM238.819 51.746C238.819 50.6367 238.507 49.7613 237.883 49.12C237.276 48.4787 236.531 48.158 235.647 48.158C234.763 48.158 234.009 48.4787 233.385 49.12C232.778 49.744 232.475 50.6107 232.475 51.72C232.475 52.8293 232.778 53.7133 233.385 54.372C234.009 55.0133 234.763 55.334 235.647 55.334C236.531 55.334 237.276 55.0133 237.883 54.372C238.507 53.7307 238.819 52.8553 238.819 51.746ZM253.085 59.208C251.664 59.208 250.381 58.9047 249.237 58.298C248.11 57.6913 247.218 56.8247 246.559 55.698C245.918 54.5713 245.597 53.254 245.597 51.746C245.597 50.2553 245.926 48.9467 246.585 47.82C247.244 46.676 248.145 45.8007 249.289 45.194C250.433 44.5873 251.716 44.284 253.137 44.284C254.558 44.284 255.841 44.5873 256.985 45.194C258.129 45.8007 259.03 46.676 259.689 47.82C260.348 48.9467 260.677 50.2553 260.677 51.746C260.677 53.2367 260.339 54.554 259.663 55.698C259.004 56.8247 258.094 57.6913 256.933 58.298C255.789 58.9047 254.506 59.208 253.085 59.208ZM253.085 55.36C253.934 55.36 254.654 55.048 255.243 54.424C255.85 53.8 256.153 52.9073 256.153 51.746C256.153 50.5847 255.858 49.692 255.269 49.068C254.697 48.444 253.986 48.132 253.137 48.132C252.27 48.132 251.551 48.444 250.979 49.068C250.407 49.6747 250.121 50.5673 250.121 51.746C250.121 52.9073 250.398 53.8 250.953 54.424C251.525 55.048 252.236 55.36 253.085 55.36ZM262.152 51.72C262.152 50.2293 262.429 48.9207 262.984 47.794C263.556 46.6673 264.327 45.8007 265.298 45.194C266.268 44.5873 267.352 44.284 268.548 44.284C269.501 44.284 270.368 44.4833 271.148 44.882C271.945 45.2807 272.569 45.818 273.02 46.494V39.76H277.466V59H273.02V56.92C272.604 57.6133 272.006 58.168 271.226 58.584C270.463 59 269.57 59.208 268.548 59.208C267.352 59.208 266.268 58.9047 265.298 58.298C264.327 57.674 263.556 56.7987 262.984 55.672C262.429 54.528 262.152 53.2107 262.152 51.72ZM273.02 51.746C273.02 50.6367 272.708 49.7613 272.084 49.12C271.477 48.4787 270.732 48.158 269.848 48.158C268.964 48.158 268.21 48.4787 267.586 49.12C266.979 49.744 266.676 50.6107 266.676 51.72C266.676 52.8293 266.979 53.7133 267.586 54.372C268.21 55.0133 268.964 55.334 269.848 55.334C270.732 55.334 271.477 55.0133 272.084 54.372C272.708 53.7307 273.02 52.8553 273.02 51.746ZM282.918 42.984C282.138 42.984 281.497 42.7587 280.994 42.308C280.509 41.84 280.266 41.268 280.266 40.592C280.266 39.8987 280.509 39.3267 280.994 38.876C281.497 38.408 282.138 38.174 282.918 38.174C283.681 38.174 284.305 38.408 284.79 38.876C285.293 39.3267 285.544 39.8987 285.544 40.592C285.544 41.268 285.293 41.84 284.79 42.308C284.305 42.7587 283.681 42.984 282.918 42.984ZM285.128 44.492V59H280.682V44.492H285.128ZM297.19 44.336C298.889 44.336 300.241 44.8907 301.246 46C302.269 47.092 302.78 48.6 302.78 50.524V59H298.36V51.122C298.36 50.1513 298.109 49.3973 297.606 48.86C297.104 48.3227 296.428 48.054 295.578 48.054C294.729 48.054 294.053 48.3227 293.55 48.86C293.048 49.3973 292.796 50.1513 292.796 51.122V59H288.35V44.492H292.796V46.416C293.247 45.7747 293.854 45.272 294.616 44.908C295.379 44.5267 296.237 44.336 297.19 44.336ZM311.382 44.284C312.404 44.284 313.297 44.492 314.06 44.908C314.84 45.324 315.438 45.87 315.854 46.546V44.492H320.3V58.974C320.3 60.3087 320.031 61.5133 319.494 62.588C318.974 63.68 318.168 64.5467 317.076 65.188C316.001 65.8293 314.658 66.15 313.046 66.15C310.896 66.15 309.154 65.6387 307.82 64.616C306.485 63.6107 305.722 62.2413 305.532 60.508H309.926C310.064 61.0627 310.394 61.496 310.914 61.808C311.434 62.1373 312.075 62.302 312.838 62.302C313.756 62.302 314.484 62.0333 315.022 61.496C315.576 60.976 315.854 60.1353 315.854 58.974V56.92C315.42 57.596 314.822 58.1507 314.06 58.584C313.297 59 312.404 59.208 311.382 59.208C310.186 59.208 309.102 58.9047 308.132 58.298C307.161 57.674 306.39 56.7987 305.818 55.672C305.263 54.528 304.986 53.2107 304.986 51.72C304.986 50.2293 305.263 48.9207 305.818 47.794C306.39 46.6673 307.161 45.8007 308.132 45.194C309.102 44.5873 310.186 44.284 311.382 44.284ZM315.854 51.746C315.854 50.6367 315.542 49.7613 314.918 49.12C314.311 48.4787 313.566 48.158 312.682 48.158C311.798 48.158 311.044 48.4787 310.42 49.12C309.813 49.744 309.51 50.6107 309.51 51.72C309.51 52.8293 309.813 53.7133 310.42 54.372C311.044 55.0133 311.798 55.334 312.682 55.334C313.566 55.334 314.311 55.0133 314.918 54.372C315.542 53.7307 315.854 52.8553 315.854 51.746Z" fill="#0D0A0B"/>
</svg>
