<svg width="350" height="100" viewBox="0 0 350 100" fill="none" xmlns="http://www.w3.org/2000/svg">
<path d="M22.9997 83.5H77.4997" stroke="#003E77" stroke-width="2.5" stroke-linecap="round"/>
<path d="M25 83.5V18C25 16.8954 25.8954 16 27 16H73.5C74.6046 16 75.5 16.8954 75.5 18V83.5" stroke="#003E77" stroke-width="2.5" stroke-linecap="square" stroke-linejoin="round"/>
<path d="M34 35.5V56.5C34 58.1569 35.3431 59.5 37 59.5H50M45 35.5H63C64.6569 35.5 66 36.8431 66 38.5V56.5C66 58.1569 64.6569 59.5 63 59.5H50M50 59.5V69.5M37 69.5H63" stroke="#D2D2D2" stroke-linecap="round"/>
<path d="M36.1968 42.2C35.855 42.2 35.6841 42.0169 35.6841 41.6507V32.2464C35.6841 31.8802 35.855 31.6971 36.1968 31.6971H37.3101C37.6519 31.6971 37.8228 31.8802 37.8228 32.2464V35.1614C37.8228 35.4544 37.8105 35.7474 37.7861 36.0403H37.8374L41.397 32.1292C41.6606 31.8411 41.8853 31.6971 42.0708 31.6971H43.543C44.1143 31.6971 44.207 31.907 43.8213 32.327L40.4888 35.9744L44.0557 41.5701C44.3242 41.99 44.2314 42.2 43.7773 42.2H42.4077C42.1538 42.2 41.9341 42.056 41.7485 41.7679L39.0532 37.5418L37.8228 38.9261V41.6507C37.8228 42.0169 37.6519 42.2 37.3101 42.2H36.1968Z" fill="#F3EFF5"/>
<path d="M41.1992 48.2852C41.043 48.2031 40.9648 48.0957 40.9648 47.9629V47.4238C40.9648 47.291 41.043 47.1836 41.1992 47.1016L46.7129 44.166C46.9199 44.0566 47.0703 44.0879 47.1641 44.2598L47.3809 44.6758C47.4707 44.8477 47.4141 44.9883 47.2109 45.0977L42.3242 47.6875V47.6992L47.2109 50.2891C47.4141 50.3984 47.4707 50.5391 47.3809 50.7109L47.1641 51.127C47.0703 51.2988 46.9199 51.3301 46.7129 51.2207L41.1992 48.2852ZM52.7539 50.7109C52.6641 50.5391 52.7207 50.3984 52.9238 50.2891L57.8105 47.6992V47.6875L52.9238 45.0977C52.7207 44.9883 52.6641 44.8477 52.7539 44.6758L52.9707 44.2598C53.0645 44.0879 53.2148 44.0566 53.4219 44.166L58.9355 47.1016C59.0918 47.1836 59.1699 47.291 59.1699 47.4238V47.9629C59.1699 48.0957 59.0918 48.2031 58.9355 48.2852L53.4219 51.2207C53.2148 51.3301 53.0645 51.2988 52.9707 51.127L52.7539 50.7109Z" fill="#D7D6D6"/>
<path d="M41.1992 48.2852L41.4342 47.8438L41.4316 47.8425L41.1992 48.2852ZM41.1992 47.1016L41.4316 47.5443L41.4342 47.5429L41.1992 47.1016ZM46.7129 44.166L46.4793 43.7239L46.4779 43.7247L46.7129 44.166ZM47.1641 44.2598L47.6075 44.0287L47.603 44.0203L47.1641 44.2598ZM47.3809 44.6758L46.9375 44.9069L46.9377 44.9074L47.3809 44.6758ZM47.2109 45.0977L47.4451 45.5395L47.448 45.5379L47.2109 45.0977ZM42.3242 47.6875L42.0901 47.2457L41.8242 47.3866V47.6875H42.3242ZM42.3242 47.6992H41.8242V48.0001L42.0901 48.141L42.3242 47.6992ZM47.2109 50.2891L47.448 49.8488L47.4451 49.8473L47.2109 50.2891ZM47.3809 50.7109L46.9377 50.4793L46.9375 50.4799L47.3809 50.7109ZM47.1641 51.127L47.6031 51.3664L47.6075 51.358L47.1641 51.127ZM46.7129 51.2207L46.4779 51.6621L46.4793 51.6628L46.7129 51.2207ZM41.4316 47.8425C41.4001 47.8259 41.4094 47.8237 41.4278 47.849C41.4376 47.8624 41.4477 47.8807 41.455 47.9031C41.4623 47.9255 41.4648 47.9463 41.4648 47.9629H40.4648C40.4648 48.3431 40.7088 48.5924 40.9668 48.7279L41.4316 47.8425ZM41.4648 47.9629V47.4238H40.4648V47.9629H41.4648ZM41.4648 47.4238C41.4648 47.4404 41.4623 47.4612 41.455 47.4836C41.4477 47.506 41.4376 47.5243 41.4278 47.5377C41.4094 47.563 41.4001 47.5608 41.4316 47.5443L40.9668 46.6589C40.7088 46.7943 40.4648 47.0436 40.4648 47.4238H41.4648ZM41.4342 47.5429L46.9479 44.6074L46.4779 43.7247L40.9642 46.6602L41.4342 47.5429ZM46.9465 44.6081C46.9987 44.5805 46.9643 44.6146 46.8792 44.597C46.8339 44.5875 46.7936 44.5668 46.7633 44.5416C46.7494 44.53 46.7398 44.5193 46.7338 44.5117C46.7278 44.5042 46.7252 44.4994 46.7251 44.4992L47.603 44.0203C47.5067 43.8437 47.3392 43.6712 47.0827 43.6179C46.8473 43.569 46.6341 43.6421 46.4793 43.7239L46.9465 44.6081ZM46.7207 44.4908L46.9375 44.9069L47.8243 44.4447L47.6075 44.0287L46.7207 44.4908ZM46.9377 44.9074C46.9377 44.9073 46.9274 44.8878 46.9236 44.8517C46.9194 44.8124 46.9244 44.767 46.942 44.7234C46.975 44.6413 47.024 44.6305 46.9739 44.6574L47.448 45.5379C47.601 45.4555 47.7799 45.3196 47.8696 45.097C47.9671 44.8548 47.9163 44.6208 47.824 44.4442L46.9377 44.9074ZM46.9768 44.6559L42.0901 47.2457L42.5584 48.1293L47.4451 45.5394L46.9768 44.6559ZM41.8242 47.6875V47.6992H42.8242V47.6875H41.8242ZM42.0901 48.141L46.9768 50.7309L47.4451 49.8473L42.5584 47.2574L42.0901 48.141ZM46.9739 50.7293C47.024 50.7563 46.975 50.7454 46.942 50.6634C46.9244 50.6198 46.9194 50.5743 46.9236 50.5351C46.9274 50.4989 46.9377 50.4794 46.9377 50.4793L47.824 50.9426C47.9163 50.7659 47.9671 50.5319 47.8696 50.2898C47.7799 50.0671 47.601 49.9312 47.448 49.8488L46.9739 50.7293ZM46.9375 50.4799L46.7207 50.8959L47.6075 51.358L47.8243 50.942L46.9375 50.4799ZM46.7251 50.8875C46.7252 50.8873 46.7278 50.8826 46.7338 50.875C46.7398 50.8674 46.7494 50.8567 46.7633 50.8451C46.7936 50.82 46.8339 50.7992 46.8792 50.7898C46.9643 50.7721 46.9987 50.8062 46.9465 50.7786L46.4793 51.6628C46.6341 51.7446 46.8473 51.8178 47.0827 51.7688C47.3392 51.7155 47.5067 51.543 47.603 51.3664L46.7251 50.8875ZM46.9479 50.7794L41.4342 47.8438L40.9642 48.7265L46.4779 51.662L46.9479 50.7794ZM52.7539 50.7109L53.1973 50.4799L53.197 50.4793L52.7539 50.7109ZM52.9238 50.2891L52.6897 49.8473L52.6868 49.8488L52.9238 50.2891ZM57.8105 47.6992L58.0447 48.141L58.3105 48.0001V47.6992H57.8105ZM57.8105 47.6875H58.3105V47.3866L58.0447 47.2457L57.8105 47.6875ZM52.9238 45.0977L52.6868 45.5379L52.6897 45.5394L52.9238 45.0977ZM52.7539 44.6758L53.197 44.9074L53.1973 44.9069L52.7539 44.6758ZM52.9707 44.2598L52.5317 44.0203L52.5273 44.0287L52.9707 44.2598ZM53.4219 44.166L53.6569 43.7247L53.6554 43.7239L53.4219 44.166ZM58.9355 47.1016L58.7006 47.5429L58.7031 47.5443L58.9355 47.1016ZM58.9355 48.2852L58.7031 47.8424L58.7006 47.8438L58.9355 48.2852ZM53.4219 51.2207L53.6554 51.6628L53.6569 51.662L53.4219 51.2207ZM52.9707 51.127L52.5272 51.3581L52.5318 51.3664L52.9707 51.127ZM53.197 50.4793C53.1971 50.4794 53.2073 50.4989 53.2112 50.5351C53.2154 50.5743 53.2104 50.6198 53.1928 50.6634C53.1597 50.7454 53.1108 50.7563 53.1609 50.7293L52.6868 49.8488C52.5337 49.9312 52.3549 50.0671 52.2652 50.2898C52.1677 50.5319 52.2184 50.7659 52.3108 50.9426L53.197 50.4793ZM53.158 50.7309L58.0447 48.141L57.5764 47.2574L52.6897 49.8473L53.158 50.7309ZM58.3105 47.6992V47.6875H57.3105V47.6992H58.3105ZM58.0447 47.2457L53.158 44.6559L52.6897 45.5394L57.5764 48.1293L58.0447 47.2457ZM53.1609 44.6574C53.1108 44.6305 53.1597 44.6413 53.1928 44.7234C53.2104 44.767 53.2154 44.8124 53.2112 44.8517C53.2073 44.8878 53.1971 44.9073 53.197 44.9074L52.3108 44.4442C52.2184 44.6208 52.1677 44.8548 52.2652 45.097C52.3549 45.3196 52.5337 45.4555 52.6868 45.5379L53.1609 44.6574ZM53.1973 44.9069L53.4141 44.4908L52.5273 44.0287L52.3105 44.4447L53.1973 44.9069ZM53.4097 44.4992C53.4095 44.4994 53.4069 44.5042 53.401 44.5117C53.395 44.5193 53.3854 44.53 53.3714 44.5416C53.3412 44.5668 53.3009 44.5875 53.2555 44.597C53.1705 44.6146 53.1361 44.5805 53.1883 44.6081L53.6554 43.7239C53.5006 43.6421 53.2875 43.569 53.0521 43.6179C52.7955 43.6712 52.6281 43.8437 52.5318 44.0203L53.4097 44.4992ZM53.1869 44.6074L58.7006 47.5429L59.1705 46.6602L53.6569 43.7247L53.1869 44.6074ZM58.7031 47.5443C58.7346 47.5608 58.7254 47.563 58.707 47.5377C58.6972 47.5243 58.6871 47.506 58.6798 47.4836C58.6725 47.4612 58.6699 47.4404 58.6699 47.4238H59.6699C59.6699 47.0436 59.426 46.7943 59.168 46.6589L58.7031 47.5443ZM58.6699 47.4238V47.9629H59.6699V47.4238H58.6699ZM58.6699 47.9629C58.6699 47.9463 58.6725 47.9255 58.6798 47.9031C58.6871 47.8807 58.6972 47.8624 58.707 47.849C58.7254 47.8237 58.7346 47.8259 58.7031 47.8425L59.168 48.7279C59.426 48.5924 59.6699 48.3431 59.6699 47.9629H58.6699ZM58.7006 47.8438L53.1869 50.7794L53.6569 51.662L59.1705 48.7265L58.7006 47.8438ZM53.1883 50.7786C53.1361 50.8062 53.1705 50.7721 53.2555 50.7898C53.3009 50.7992 53.3412 50.82 53.3714 50.8451C53.3854 50.8567 53.395 50.8674 53.401 50.875C53.4069 50.8826 53.4095 50.8873 53.4097 50.8875L52.5318 51.3664C52.6281 51.543 52.7955 51.7155 53.0521 51.7688C53.2875 51.8178 53.5006 51.7446 53.6554 51.6628L53.1883 50.7786ZM53.4141 50.8959L53.1973 50.4799L52.3105 50.942L52.5273 51.358L53.4141 50.8959Z" fill="#7E7E7E"/>
<path d="M122.29 60L116.154 51.94V60H111.708V41.748H116.154V49.756L122.238 41.748H127.464L120.392 50.692L127.724 60H122.29ZM128.953 52.72C128.953 51.2293 129.23 49.9207 129.785 48.794C130.357 47.6673 131.128 46.8007 132.099 46.194C133.069 45.5873 134.153 45.284 135.349 45.284C136.371 45.284 137.264 45.492 138.027 45.908C138.807 46.324 139.405 46.87 139.821 47.546V45.492H144.267V60H139.821V57.946C139.387 58.622 138.781 59.168 138.001 59.584C137.238 60 136.345 60.208 135.323 60.208C134.144 60.208 133.069 59.9047 132.099 59.298C131.128 58.674 130.357 57.7987 129.785 56.672C129.23 55.528 128.953 54.2107 128.953 52.72ZM139.821 52.746C139.821 51.6367 139.509 50.7613 138.885 50.12C138.278 49.4787 137.533 49.158 136.649 49.158C135.765 49.158 135.011 49.4787 134.387 50.12C133.78 50.744 133.477 51.6107 133.477 52.72C133.477 53.8293 133.78 54.7133 134.387 55.372C135.011 56.0133 135.765 56.334 136.649 56.334C137.533 56.334 138.278 56.0133 138.885 55.372C139.509 54.7307 139.821 53.8553 139.821 52.746ZM165.995 45.336C167.798 45.336 169.228 45.882 170.285 46.974C171.36 48.066 171.897 49.5827 171.897 51.524V60H167.477V52.122C167.477 51.186 167.226 50.4667 166.723 49.964C166.238 49.444 165.562 49.184 164.695 49.184C163.828 49.184 163.144 49.444 162.641 49.964C162.156 50.4667 161.913 51.186 161.913 52.122V60H157.493V52.122C157.493 51.186 157.242 50.4667 156.739 49.964C156.254 49.444 155.578 49.184 154.711 49.184C153.844 49.184 153.16 49.444 152.657 49.964C152.172 50.4667 151.929 51.186 151.929 52.122V60H147.483V45.492H151.929V47.312C152.38 46.7053 152.969 46.2287 153.697 45.882C154.425 45.518 155.248 45.336 156.167 45.336C157.259 45.336 158.23 45.57 159.079 46.038C159.946 46.506 160.622 47.1733 161.107 48.04C161.61 47.2427 162.294 46.5927 163.161 46.09C164.028 45.5873 164.972 45.336 165.995 45.336ZM174.123 52.72C174.123 51.2293 174.4 49.9207 174.955 48.794C175.527 47.6673 176.298 46.8007 177.269 46.194C178.239 45.5873 179.323 45.284 180.519 45.284C181.541 45.284 182.434 45.492 183.197 45.908C183.977 46.324 184.575 46.87 184.991 47.546V45.492H189.437V60H184.991V57.946C184.557 58.622 183.951 59.168 183.171 59.584C182.408 60 181.515 60.208 180.493 60.208C179.314 60.208 178.239 59.9047 177.269 59.298C176.298 58.674 175.527 57.7987 174.955 56.672C174.4 55.528 174.123 54.2107 174.123 52.72ZM184.991 52.746C184.991 51.6367 184.679 50.7613 184.055 50.12C183.448 49.4787 182.703 49.158 181.819 49.158C180.935 49.158 180.181 49.4787 179.557 50.12C178.95 50.744 178.647 51.6107 178.647 52.72C178.647 53.8293 178.95 54.7133 179.557 55.372C180.181 56.0133 180.935 56.334 181.819 56.334C182.703 56.334 183.448 56.0133 184.055 55.372C184.679 54.7307 184.991 53.8553 184.991 52.746ZM197.099 47.91C197.619 47.1127 198.269 46.4887 199.049 46.038C199.829 45.57 200.696 45.336 201.649 45.336V50.042H200.427C199.318 50.042 198.486 50.2847 197.931 50.77C197.376 51.238 197.099 52.07 197.099 53.266V60H192.653V45.492H197.099V47.91ZM225.612 60H221.166L213.73 48.742V60H209.284V41.748H213.73L221.166 53.058V41.748H225.612V60ZM234.347 45.284C235.369 45.284 236.262 45.492 237.025 45.908C237.805 46.324 238.403 46.87 238.819 47.546V45.492H243.265V59.974C243.265 61.3087 242.996 62.5133 242.459 63.588C241.939 64.68 241.133 65.5467 240.041 66.188C238.966 66.8293 237.623 67.15 236.011 67.15C233.861 67.15 232.119 66.6387 230.785 65.616C229.45 64.6107 228.687 63.2413 228.497 61.508H232.891C233.029 62.0627 233.359 62.496 233.879 62.808C234.399 63.1373 235.04 63.302 235.803 63.302C236.721 63.302 237.449 63.0333 237.987 62.496C238.541 61.976 238.819 61.1353 238.819 59.974V57.92C238.385 58.596 237.787 59.1507 237.025 59.584C236.262 60 235.369 60.208 234.347 60.208C233.151 60.208 232.067 59.9047 231.097 59.298C230.126 58.674 229.355 57.7987 228.783 56.672C228.228 55.528 227.951 54.2107 227.951 52.72C227.951 51.2293 228.228 49.9207 228.783 48.794C229.355 47.6673 230.126 46.8007 231.097 46.194C232.067 45.5873 233.151 45.284 234.347 45.284ZM238.819 52.746C238.819 51.6367 238.507 50.7613 237.883 50.12C237.276 49.4787 236.531 49.158 235.647 49.158C234.763 49.158 234.009 49.4787 233.385 50.12C232.778 50.744 232.475 51.6107 232.475 52.72C232.475 53.8293 232.778 54.7133 233.385 55.372C234.009 56.0133 234.763 56.334 235.647 56.334C236.531 56.334 237.276 56.0133 237.883 55.372C238.507 54.7307 238.819 53.8553 238.819 52.746ZM253.085 60.208C251.664 60.208 250.381 59.9047 249.237 59.298C248.11 58.6913 247.218 57.8247 246.559 56.698C245.918 55.5713 245.597 54.254 245.597 52.746C245.597 51.2553 245.926 49.9467 246.585 48.82C247.244 47.676 248.145 46.8007 249.289 46.194C250.433 45.5873 251.716 45.284 253.137 45.284C254.558 45.284 255.841 45.5873 256.985 46.194C258.129 46.8007 259.03 47.676 259.689 48.82C260.348 49.9467 260.677 51.2553 260.677 52.746C260.677 54.2367 260.339 55.554 259.663 56.698C259.004 57.8247 258.094 58.6913 256.933 59.298C255.789 59.9047 254.506 60.208 253.085 60.208ZM253.085 56.36C253.934 56.36 254.654 56.048 255.243 55.424C255.85 54.8 256.153 53.9073 256.153 52.746C256.153 51.5847 255.858 50.692 255.269 50.068C254.697 49.444 253.986 49.132 253.137 49.132C252.27 49.132 251.551 49.444 250.979 50.068C250.407 50.6747 250.121 51.5673 250.121 52.746C250.121 53.9073 250.398 54.8 250.953 55.424C251.525 56.048 252.236 56.36 253.085 56.36ZM262.152 52.72C262.152 51.2293 262.429 49.9207 262.984 48.794C263.556 47.6673 264.327 46.8007 265.298 46.194C266.268 45.5873 267.352 45.284 268.548 45.284C269.501 45.284 270.368 45.4833 271.148 45.882C271.945 46.2807 272.569 46.818 273.02 47.494V40.76H277.466V60H273.02V57.92C272.604 58.6133 272.006 59.168 271.226 59.584C270.463 60 269.57 60.208 268.548 60.208C267.352 60.208 266.268 59.9047 265.298 59.298C264.327 58.674 263.556 57.7987 262.984 56.672C262.429 55.528 262.152 54.2107 262.152 52.72ZM273.02 52.746C273.02 51.6367 272.708 50.7613 272.084 50.12C271.477 49.4787 270.732 49.158 269.848 49.158C268.964 49.158 268.21 49.4787 267.586 50.12C266.979 50.744 266.676 51.6107 266.676 52.72C266.676 53.8293 266.979 54.7133 267.586 55.372C268.21 56.0133 268.964 56.334 269.848 56.334C270.732 56.334 271.477 56.0133 272.084 55.372C272.708 54.7307 273.02 53.8553 273.02 52.746ZM282.918 43.984C282.138 43.984 281.497 43.7587 280.994 43.308C280.509 42.84 280.266 42.268 280.266 41.592C280.266 40.8987 280.509 40.3267 280.994 39.876C281.497 39.408 282.138 39.174 282.918 39.174C283.681 39.174 284.305 39.408 284.79 39.876C285.293 40.3267 285.544 40.8987 285.544 41.592C285.544 42.268 285.293 42.84 284.79 43.308C284.305 43.7587 283.681 43.984 282.918 43.984ZM285.128 45.492V60H280.682V45.492H285.128ZM297.19 45.336C298.889 45.336 300.241 45.8907 301.246 47C302.269 48.092 302.78 49.6 302.78 51.524V60H298.36V52.122C298.36 51.1513 298.109 50.3973 297.606 49.86C297.104 49.3227 296.428 49.054 295.578 49.054C294.729 49.054 294.053 49.3227 293.55 49.86C293.048 50.3973 292.796 51.1513 292.796 52.122V60H288.35V45.492H292.796V47.416C293.247 46.7747 293.854 46.272 294.616 45.908C295.379 45.5267 296.237 45.336 297.19 45.336ZM311.382 45.284C312.404 45.284 313.297 45.492 314.06 45.908C314.84 46.324 315.438 46.87 315.854 47.546V45.492H320.3V59.974C320.3 61.3087 320.031 62.5133 319.494 63.588C318.974 64.68 318.168 65.5467 317.076 66.188C316.001 66.8293 314.658 67.15 313.046 67.15C310.896 67.15 309.154 66.6387 307.82 65.616C306.485 64.6107 305.722 63.2413 305.532 61.508H309.926C310.064 62.0627 310.394 62.496 310.914 62.808C311.434 63.1373 312.075 63.302 312.838 63.302C313.756 63.302 314.484 63.0333 315.022 62.496C315.576 61.976 315.854 61.1353 315.854 59.974V57.92C315.42 58.596 314.822 59.1507 314.06 59.584C313.297 60 312.404 60.208 311.382 60.208C310.186 60.208 309.102 59.9047 308.132 59.298C307.161 58.674 306.39 57.7987 305.818 56.672C305.263 55.528 304.986 54.2107 304.986 52.72C304.986 51.2293 305.263 49.9207 305.818 48.794C306.39 47.6673 307.161 46.8007 308.132 46.194C309.102 45.5873 310.186 45.284 311.382 45.284ZM315.854 52.746C315.854 51.6367 315.542 50.7613 314.918 50.12C314.311 49.4787 313.566 49.158 312.682 49.158C311.798 49.158 311.044 49.4787 310.42 50.12C309.813 50.744 309.51 51.6107 309.51 52.72C309.51 53.8293 309.813 54.7133 310.42 55.372C311.044 56.0133 311.798 56.334 312.682 56.334C313.566 56.334 314.311 56.0133 314.918 55.372C315.542 54.7307 315.854 53.8553 315.854 52.746Z" fill="#F3EFF5"/>
</svg>
