<svg width="100" height="100" viewBox="0 0 100 100" fill="none" xmlns="http://www.w3.org/2000/svg">
<path d="M22.9997 83.5H77.4997" stroke="#003E77" stroke-width="2.5" stroke-linecap="round"/>
<path d="M25 83.5V18C25 16.8954 25.8954 16 27 16H73.5C74.6046 16 75.5 16.8954 75.5 18V83.5" stroke="#003E77" stroke-width="2.5" stroke-linecap="square" stroke-linejoin="round"/>
<path d="M34 35.5V56.5C34 58.1569 35.3431 59.5 37 59.5H50M45 35.5H63C64.6569 35.5 66 36.8431 66 38.5V56.5C66 58.1569 64.6569 59.5 63 59.5H50M50 59.5V69.5M37 69.5H63" stroke="#D2D2D2" stroke-linecap="round"/>
<path d="M36.1968 42.2C35.855 42.2 35.6841 42.0169 35.6841 41.6507V32.2464C35.6841 31.8802 35.855 31.6971 36.1968 31.6971H37.3101C37.6519 31.6971 37.8228 31.8802 37.8228 32.2464V35.1614C37.8228 35.4544 37.8105 35.7474 37.7861 36.0403H37.8374L41.397 32.1292C41.6606 31.8411 41.8853 31.6971 42.0708 31.6971H43.543C44.1143 31.6971 44.207 31.907 43.8213 32.327L40.4888 35.9744L44.0557 41.5701C44.3242 41.9901 44.2314 42.2 43.7773 42.2H42.4077C42.1538 42.2 41.9341 42.056 41.7485 41.7679L39.0532 37.5418L37.8228 38.9261V41.6507C37.8228 42.0169 37.6519 42.2 37.3101 42.2H36.1968Z" fill="white"/>
<path d="M41.1992 48.2852C41.043 48.2031 40.9648 48.0957 40.9648 47.9629V47.4238C40.9648 47.291 41.043 47.1836 41.1992 47.1016L46.7129 44.166C46.9199 44.0566 47.0703 44.0879 47.1641 44.2598L47.3809 44.6758C47.4707 44.8477 47.4141 44.9883 47.2109 45.0977L42.3242 47.6875V47.6992L47.2109 50.2891C47.4141 50.3984 47.4707 50.5391 47.3809 50.7109L47.1641 51.127C47.0703 51.2988 46.9199 51.3301 46.7129 51.2207L41.1992 48.2852ZM52.7539 50.7109C52.6641 50.5391 52.7207 50.3984 52.9238 50.2891L57.8105 47.6992V47.6875L52.9238 45.0977C52.7207 44.9883 52.6641 44.8477 52.7539 44.6758L52.9707 44.2598C53.0645 44.0879 53.2148 44.0566 53.4219 44.166L58.9355 47.1016C59.0918 47.1836 59.1699 47.291 59.1699 47.4238V47.9629C59.1699 48.0957 59.0918 48.2031 58.9355 48.2852L53.4219 51.2207C53.2148 51.3301 53.0645 51.2988 52.9707 51.127L52.7539 50.7109Z" fill="#D7D6D6"/>
<path d="M41.1992 48.2852L41.4342 47.8438L41.4316 47.8425L41.1992 48.2852ZM41.1992 47.1016L41.4316 47.5443L41.4342 47.5429L41.1992 47.1016ZM46.7129 44.166L46.4793 43.7239L46.4779 43.7247L46.7129 44.166ZM47.1641 44.2598L47.6075 44.0287L47.603 44.0203L47.1641 44.2598ZM47.3809 44.6758L46.9375 44.9069L46.9377 44.9074L47.3809 44.6758ZM47.2109 45.0977L47.4451 45.5395L47.448 45.5379L47.2109 45.0977ZM42.3242 47.6875L42.0901 47.2457L41.8242 47.3866V47.6875H42.3242ZM42.3242 47.6992H41.8242V48.0001L42.0901 48.141L42.3242 47.6992ZM47.2109 50.2891L47.448 49.8488L47.4451 49.8473L47.2109 50.2891ZM47.3809 50.7109L46.9377 50.4793L46.9375 50.4799L47.3809 50.7109ZM47.1641 51.127L47.6031 51.3664L47.6075 51.358L47.1641 51.127ZM46.7129 51.2207L46.4779 51.6621L46.4793 51.6628L46.7129 51.2207ZM41.4316 47.8425C41.4001 47.8259 41.4094 47.8237 41.4278 47.849C41.4376 47.8624 41.4477 47.8807 41.455 47.9031C41.4623 47.9255 41.4648 47.9463 41.4648 47.9629H40.4648C40.4648 48.3431 40.7088 48.5924 40.9668 48.7279L41.4316 47.8425ZM41.4648 47.9629V47.4238H40.4648V47.9629H41.4648ZM41.4648 47.4238C41.4648 47.4404 41.4623 47.4612 41.455 47.4836C41.4477 47.506 41.4376 47.5243 41.4278 47.5377C41.4094 47.563 41.4001 47.5608 41.4316 47.5443L40.9668 46.6589C40.7088 46.7943 40.4648 47.0436 40.4648 47.4238H41.4648ZM41.4342 47.5429L46.9479 44.6074L46.4779 43.7247L40.9642 46.6602L41.4342 47.5429ZM46.9465 44.6081C46.9987 44.5805 46.9643 44.6146 46.8792 44.597C46.8339 44.5875 46.7936 44.5668 46.7633 44.5416C46.7494 44.53 46.7398 44.5193 46.7338 44.5117C46.7278 44.5042 46.7252 44.4994 46.7251 44.4992L47.603 44.0203C47.5067 43.8437 47.3392 43.6712 47.0827 43.6179C46.8473 43.569 46.6341 43.6421 46.4793 43.7239L46.9465 44.6081ZM46.7207 44.4908L46.9375 44.9069L47.8243 44.4447L47.6075 44.0287L46.7207 44.4908ZM46.9377 44.9074C46.9377 44.9073 46.9274 44.8878 46.9236 44.8517C46.9194 44.8124 46.9244 44.767 46.942 44.7234C46.975 44.6413 47.024 44.6305 46.9739 44.6574L47.448 45.5379C47.601 45.4555 47.7799 45.3196 47.8696 45.097C47.9671 44.8548 47.9163 44.6208 47.824 44.4442L46.9377 44.9074ZM46.9768 44.6559L42.0901 47.2457L42.5584 48.1293L47.4451 45.5394L46.9768 44.6559ZM41.8242 47.6875V47.6992H42.8242V47.6875H41.8242ZM42.0901 48.141L46.9768 50.7309L47.4451 49.8473L42.5584 47.2574L42.0901 48.141ZM46.9739 50.7293C47.024 50.7563 46.975 50.7454 46.942 50.6634C46.9244 50.6198 46.9194 50.5743 46.9236 50.5351C46.9274 50.4989 46.9377 50.4794 46.9377 50.4793L47.824 50.9426C47.9163 50.7659 47.9671 50.5319 47.8696 50.2898C47.7799 50.0671 47.601 49.9312 47.448 49.8488L46.9739 50.7293ZM46.9375 50.4799L46.7207 50.8959L47.6075 51.358L47.8243 50.942L46.9375 50.4799ZM46.7251 50.8875C46.7252 50.8873 46.7278 50.8826 46.7338 50.875C46.7398 50.8674 46.7494 50.8567 46.7633 50.8451C46.7936 50.82 46.8339 50.7992 46.8792 50.7898C46.9643 50.7721 46.9987 50.8062 46.9465 50.7786L46.4793 51.6628C46.6341 51.7446 46.8473 51.8178 47.0827 51.7688C47.3392 51.7155 47.5067 51.543 47.603 51.3664L46.7251 50.8875ZM46.9479 50.7794L41.4342 47.8438L40.9642 48.7265L46.4779 51.662L46.9479 50.7794ZM52.7539 50.7109L53.1973 50.4799L53.197 50.4793L52.7539 50.7109ZM52.9238 50.2891L52.6897 49.8473L52.6868 49.8488L52.9238 50.2891ZM57.8105 47.6992L58.0447 48.141L58.3105 48.0001V47.6992H57.8105ZM57.8105 47.6875H58.3105V47.3866L58.0447 47.2457L57.8105 47.6875ZM52.9238 45.0977L52.6868 45.5379L52.6897 45.5394L52.9238 45.0977ZM52.7539 44.6758L53.197 44.9074L53.1973 44.9069L52.7539 44.6758ZM52.9707 44.2598L52.5317 44.0203L52.5273 44.0287L52.9707 44.2598ZM53.4219 44.166L53.6569 43.7247L53.6554 43.7239L53.4219 44.166ZM58.9355 47.1016L58.7006 47.5429L58.7031 47.5443L58.9355 47.1016ZM58.9355 48.2852L58.7031 47.8424L58.7006 47.8438L58.9355 48.2852ZM53.4219 51.2207L53.6554 51.6628L53.6569 51.662L53.4219 51.2207ZM52.9707 51.127L52.5272 51.3581L52.5318 51.3664L52.9707 51.127ZM53.197 50.4793C53.1971 50.4794 53.2073 50.4989 53.2112 50.5351C53.2154 50.5743 53.2104 50.6198 53.1928 50.6634C53.1597 50.7454 53.1108 50.7563 53.1609 50.7293L52.6868 49.8488C52.5337 49.9312 52.3549 50.0671 52.2652 50.2898C52.1677 50.5319 52.2184 50.7659 52.3108 50.9426L53.197 50.4793ZM53.158 50.7309L58.0447 48.141L57.5764 47.2574L52.6897 49.8473L53.158 50.7309ZM58.3105 47.6992V47.6875H57.3105V47.6992H58.3105ZM58.0447 47.2457L53.158 44.6559L52.6897 45.5394L57.5764 48.1293L58.0447 47.2457ZM53.1609 44.6574C53.1108 44.6305 53.1597 44.6413 53.1928 44.7234C53.2104 44.767 53.2154 44.8124 53.2112 44.8517C53.2073 44.8878 53.1971 44.9073 53.197 44.9074L52.3108 44.4442C52.2184 44.6208 52.1677 44.8548 52.2652 45.097C52.3549 45.3196 52.5337 45.4555 52.6868 45.5379L53.1609 44.6574ZM53.1973 44.9069L53.4141 44.4908L52.5273 44.0287L52.3105 44.4447L53.1973 44.9069ZM53.4097 44.4992C53.4095 44.4994 53.4069 44.5042 53.401 44.5117C53.395 44.5193 53.3854 44.53 53.3714 44.5416C53.3412 44.5668 53.3009 44.5875 53.2555 44.597C53.1705 44.6146 53.1361 44.5805 53.1883 44.6081L53.6554 43.7239C53.5006 43.6421 53.2875 43.569 53.0521 43.6179C52.7955 43.6712 52.6281 43.8437 52.5318 44.0203L53.4097 44.4992ZM53.1869 44.6074L58.7006 47.5429L59.1705 46.6602L53.6569 43.7247L53.1869 44.6074ZM58.7031 47.5443C58.7346 47.5608 58.7254 47.563 58.707 47.5377C58.6972 47.5243 58.6871 47.506 58.6798 47.4836C58.6725 47.4612 58.6699 47.4404 58.6699 47.4238H59.6699C59.6699 47.0436 59.426 46.7943 59.168 46.6589L58.7031 47.5443ZM58.6699 47.4238V47.9629H59.6699V47.4238H58.6699ZM58.6699 47.9629C58.6699 47.9463 58.6725 47.9255 58.6798 47.9031C58.6871 47.8807 58.6972 47.8624 58.707 47.849C58.7254 47.8237 58.7346 47.8259 58.7031 47.8425L59.168 48.7279C59.426 48.5924 59.6699 48.3431 59.6699 47.9629H58.6699ZM58.7006 47.8438L53.1869 50.7794L53.6569 51.662L59.1705 48.7265L58.7006 47.8438ZM53.1883 50.7786C53.1361 50.8062 53.1705 50.7721 53.2555 50.7898C53.3009 50.7992 53.3412 50.82 53.3714 50.8451C53.3854 50.8567 53.395 50.8674 53.401 50.875C53.4069 50.8826 53.4095 50.8873 53.4097 50.8875L52.5318 51.3664C52.6281 51.543 52.7955 51.7155 53.0521 51.7688C53.2875 51.8178 53.5006 51.7446 53.6554 51.6628L53.1883 50.7786ZM53.4141 50.8959L53.1973 50.4799L52.3105 50.942L52.5273 51.358L53.4141 50.8959Z" fill="#7E7E7E"/>
</svg>
